<?xml version="1.0" encoding="utf-8"?>
<!-- Generator: Adobe Illustrator 25.4.1, SVG Export Plug-In . SVG Version: 6.00 Build 0)  -->
<svg version="1.1" id="Ebene_1" xmlns="http://www.w3.org/2000/svg" xmlns:xlink="http://www.w3.org/1999/xlink" x="0px" y="0px"
	 viewBox="0 0 93.6 93.6" style="enable-background:new 0 0 93.6 93.6;" xml:space="preserve">
<style type="text/css">
	.st0{fill-rule:evenodd;clip-rule:evenodd;fill:#F49424;}
	.st1{fill-rule:evenodd;clip-rule:evenodd;fill:#143C7C;}
	.st2{font-family:'Impact';fill:#F49424;}
	.st3{font-family:'Impact';fill:#143C7C;}
	.st4{font-size:48px;}
</style>
<g id="svgg">
	<path id="path0" class="st0" d="M45.1,0c-2.9,0.1-4.7,0.4-7.4,0.9C37.3,1,37,1,36.9,1.1c-0.1,0-0.4,0.1-0.6,0.1
		c-3.9,0.9-8.4,2.6-11.6,4.4c-0.2,0.1-0.4,0.2-0.6,0.3c-1.2,0.7-3.6,2.2-4.6,2.9c0,0-0.2,0.1-0.3,0.2c-1.2,0.9-1.4,1-2.5,2
		c-2.3,1.9-4.7,4.4-6.6,6.8c-0.2,0.3-0.4,0.5-0.4,0.6c-0.4,0.5-2.6,3.6-2.6,3.7c0,0-0.1,0.1-0.2,0.3c-0.7,1.1-2.1,3.7-2.9,5.4
		c-3.6,8.1-4.8,17-3.5,25.8C0.7,55,1,56.4,1.4,58c0.8,3.4,2,6.6,3.6,9.7c0.8,1.7,1.8,3.4,2.9,4.9c0.3,0.5,0.6,0.9,0.7,1l0.1,0.1
		c0,0,0.1,0.1,0.2,0.3c0.5,0.6,1.1,1.5,1.2,1.5c0,0,0.2,0.3,0.5,0.6c2.3,2.9,5.3,5.8,8.2,8c0.1,0.1,0.3,0.2,0.3,0.2
		c0.7,0.5,1.5,1.1,2.8,1.9c2.5,1.6,6.3,3.5,9.1,4.5c9.1,3.2,18,3.7,27.3,1.5c8.1-1.9,15.8-6.3,21.8-12.3c0.9-0.9,1.2-1.2,1.8-1.9
		c0.4-0.5,1.3-1.6,1.8-2.1c0.1-0.1-0.2,0.1-0.8,0.7c-0.3,0.3-0.7,0.6-0.9,0.8c-0.2,0.2-0.4,0.4-0.5,0.4c-0.1,0.1-0.3,0.2-0.5,0.4
		c-0.2,0.2-0.5,0.4-0.6,0.5c-0.5,0.4-2.5,1.8-3.1,2.1c-0.1,0-0.4,0.2-0.6,0.4c-0.3,0.2-0.7,0.4-1,0.5C75.2,82,75,82.1,75,82.1
		c-0.7,0.4-3.5,1.7-4.8,2.2c-2.6,0.9-4.6,1.4-7.4,1.9c-4.3,0.7-9.1,0.5-14-0.5c-1.2-0.3-2.8-0.7-4.6-1.4c-0.6-0.2-1.9-0.8-2.8-1.1
		c-0.4-0.2-2-1-2.4-1.2c-0.2-0.1-0.5-0.3-0.6-0.4c-3.2-1.7-7.1-4.9-9.7-8c-4.8-5.5-7.9-12.2-8.9-19.3c-1.1-7.7,0.1-15.5,3.6-22.3
		c0.4-0.8,0.6-1.2,1.2-2.2c0.1-0.1,0.1-0.2,0.2-0.3c0-0.1,0.1-0.1,0.1-0.1c0-0.1,1-1.5,1.6-2.4c0.3-0.4,1.4-1.8,1.4-1.9
		c0,0,0.2-0.3,0.5-0.6s0.6-0.7,0.7-0.8c0.1-0.1,0.3-0.3,0.4-0.5c8-8.8,20.1-13.3,32.1-11.9c3.7,0.4,7.8,1.5,10.9,2.9
		c0.2,0.1,0.4,0.2,0.6,0.3c0.4,0.2,2.2,1.1,2.5,1.3c0.3,0.2,0.7,0.4,1.1,0.7c2.3,1.4,5,3.5,7.1,5.6c0.8,0.8,0.9,0.9,1.6,1.6
		c2.5,2.7,4.9,6.5,6.4,9.8C91.9,33.8,92,34,92,34s0-0.2-0.4-1.3c-0.3-1.1-0.9-2.7-1.5-4.1c-0.7-1.7-1.9-4.1-2.7-5.4
		c-0.1-0.2-0.2-0.3-0.2-0.4c-0.1-0.1-0.8-1.4-1.1-1.8c-0.5-0.8-2-2.7-2.6-3.6c-0.9-1.1-1.4-1.7-1.8-2.1c-2.6-2.8-4.9-4.7-7.7-6.7
		c-0.5-0.3-1-0.7-1.1-0.8c-0.6-0.4-1.8-1.2-2-1.2c-0.1,0-0.2-0.1-0.2-0.1c-1.2-0.7-3.4-1.8-5-2.5c-0.4-0.2-0.8-0.3-0.9-0.4
		c-0.3-0.1-1.7-0.6-2.3-0.9c-3.4-1.2-7-2-10.4-2.3c-0.3,0-0.6-0.1-0.7-0.1C50.1,0.1,46.3,0,45.1,0"/>
	<path id="path1" class="st1" d="M54.1,12.8c-2.6,0.1-5.2,0.5-7.8,1.2c-0.7,0.2-1.7,0.5-1.8,0.6c-0.1,0-0.2,0.1-0.3,0.1
		c-0.3,0.1-1.4,0.5-1.5,0.6c-0.1,0-0.3,0.1-0.4,0.2c-0.2,0.1-0.4,0.1-0.4,0.2c0,0,0,0-0.1,0s-0.2,0.1-0.4,0.1
		c-0.1,0.1-0.3,0.1-0.3,0.1S41,15.9,41,16l-0.1,0.1h-0.1c-0.1,0-0.2,0.1-0.2,0.1c-0.1,0-0.1,0.1-0.1,0.1l0,0c-0.1,0-1.4,0.7-1.4,0.7
		s0,0.1,0,0s-0.4,0.1-0.4,0.2s0,0.1,0,0s-0.1,0-0.1,0l-0.1,0.1l-0.4,0.2l0,0c-0.1,0-0.3,0.1-0.2,0.1l0,0h-0.1l0,0
		c-0.1,0-0.8,0.5-0.8,0.5s0,0-0.1,0s-0.1,0-0.1,0l0,0c-0.1,0-0.4,0.2-0.4,0.3l0,0c0,0-0.1,0-0.2,0.1c-0.1,0.1-0.1,0.1-0.1,0.1
		c-0.1,0-0.4,0.3-0.4,0.3s0,0.1,0,0c-0.1,0-0.2,0-0.2,0.1c0,0,0,0.1-0.1,0.1c0,0-0.2,0.1-0.2,0.2c-0.1,0.1-0.2,0.1-0.2,0.1l0,0
		l-0.1,0.1c-0.1,0-0.3,0.1-0.3,0.2c0,0,0,0.1,0,0c0,0-0.1,0-0.1,0.1c-0.1,0.1-0.1,0.1-0.2,0.1c0,0,0,0,0,0.1s0,0.1,0,0
		c-0.1-0.1-0.6,0.3-0.6,0.4c0,0,0,0.1-0.1,0c0,0-0.1,0-0.2,0.1c-0.1,0.1-0.1,0.1-0.2,0.2c-0.1,0-0.3,0.2-0.6,0.5
		c-0.1,0.1-0.2,0.2-0.2,0.2l-0.1,0.1c0,0.1-0.1,0.1-0.1,0.1s-0.1,0-0.1,0.1C32,21.8,32,21.8,32,21.8s-0.1,0-0.1,0.1
		c-0.1,0.1-0.1,0.1-0.1,0.2s0,0.1-0.1,0c-0.1,0-0.1,0-0.1,0l-0.1,0.1c-0.1,0-0.1,0,0,0s0.1,0,0,0s-0.3,0.2-0.3,0.3c0,0.1,0,0.1,0,0
		c-0.1-0.1-0.9,0.7-0.8,0.8c0,0.1,0,0.1,0,0c-0.1-0.1-0.5,0.3-0.4,0.4l0,0c-0.1-0.1-0.2,0.1-0.2,0.2c0,0,0,0.1,0,0
		c-0.1,0-0.1,0-0.2,0.1s-0.2,0.2-0.3,0.4c-0.4,0.4-0.4,0.5-0.4,0.6l0,0l0,0c0,0,0,0.1-0.1,0.2C28,25.7,28,25.8,28,25.8s1-0.8,1-0.9
		l0.1-0.1c0.2-0.1,0.8-0.6,0.8-0.7c0,0,0,0,0.1,0c0,0,0.1,0,0.1-0.1c0,0,0-0.1,0,0c0.1,0,0.6-0.4,0.6-0.4s0-0.1,0,0
		c0.1,0.1,0.2,0,0.2-0.1s0-0.1,0.1,0c0.1,0,0.5-0.2,0.5-0.3l0,0c0.1,0,0.8-0.4,0.9-0.5h0.1l0,0c0,0,0-0.1,0.1-0.1s0.7-0.4,0.7-0.4
		l0.1-0.1h0.1c0,0,0,0,0-0.1l0,0h0.1c0,0,0.3-0.2,0.5-0.3c0.3-0.1,0.5-0.3,0.6-0.3s0.1-0.1,0.2-0.1H35c0,0,0,0,0.1,0
		c0,0,0.2-0.1,0.4-0.1c0.3-0.2,1.5-0.6,1.7-0.7c0.1,0,0.2-0.1,0.2-0.1s0,0,0.1,0s0.5-0.1,0.8-0.2c0.1,0,0.2-0.1,0.2-0.1
		s0.2,0,0.3-0.1c1.1-0.3,1.7-0.5,1.8-0.5c0,0,0.1,0,0.2-0.1c0.1,0,0.2-0.1,0.2-0.1c0.1,0,0.7-0.1,1.1-0.2c0,0,0.3-0.1,0.6-0.1
		c0.3-0.1,0.5-0.1,0.5-0.1s0.1,0,0.2,0c0.1,0,0.5,0,0.9-0.1c2.4-0.3,5.1-0.3,7.4,0c0.3,0,0.5,0.1,0.6,0.1c0.2,0,2.4,0.5,3,0.6
		c0.3,0.1,0.5,0.1,0.5,0.1l0,0c0,0,1.1,0.4,1.2,0.4h0.1c0,0,0.5,0.2,0.6,0.3c0.1,0,0.2,0.1,0.4,0.2c0.1,0,0.3,0.1,0.6,0.2
		c0.2,0.1,0.5,0.2,0.7,0.3c0.7,0.4,1.2,0.5,1.2,0.5h0.1c0,0,0.2,0.1,0.4,0.2s0.4,0.2,0.4,0.2s0.7,0.4,1,0.5c0,0,0.1,0.1,0.2,0.1
		s0.2,0.1,0.2,0.1s0.1,0.1,0.2,0.2c0.1,0.1,0.2,0.1,0.2,0.1s0.1,0,0,0c0,0.1,0.4,0.3,0.5,0.3h0.1v0.1H64l0,0c0,0.1,0.1,0.2,0.2,0.2
		h0.1c0,0.1,0.8,0.6,0.9,0.6c0,0,0.1,0,0.1,0.1s0.1,0.1,0.1,0.1s0.1,0.1,0.2,0.2s0.2,0.2,0.2,0.2s0.1,0.1,0.2,0.1
		c0.1,0.1,0.2,0.1,0.2,0.1s0.1,0,0.1,0.1s0.3,0.3,0.4,0.3l0,0c0,0,0.1,0.2,0.2,0.2l0.1,0.1c0.1,0.1,0.1,0.1,0.2,0.1
		c0,0,0.1,0,0.1,0.1s0.1,0.1,0.1,0.1s0.1,0,0,0l0,0c0,0,0.1,0,0.1,0.1l0.1,0.1c0.1,0.1,1.1,1.1,1.2,1.2c0,0.1,0.1,0.1,0.1,0.1
		s0.1,0,0.1,0.1c0,0,0.1,0.1,0.1,0.2c0.1,0.1,0.1,0.1,0.1,0.2s0.4,0.5,0.5,0.5l0,0c0,0,0,0.1,0.1,0.1c0.1,0.1,0.1,0.1,0.2,0.1l0,0
		c0,0,0,0.1,0.1,0.1s0.1,0.1,0.1,0.1s0,0.1,0.1,0.1s0.1,0,0,0c0,0,0-0.1,0,0c0,0,0.1,0,0.1,0.1s0,0.2,0.1,0.2s0.1,0,0.1,0
		c0,0.1,0.2,0.4,0.4,0.6c0.1,0.1,0.1,0.1,0.1,0.2c0,0,0.1,0.1,0.1,0.2c0.1,0.1,0.1,0.2,0.1,0.2s0,0,0.1,0.2c0.1,0.1,0.1,0.2,0.1,0.2
		s0.1,0,0.1,0.1s0.1,0.1,0.1,0.1c0.3,0,0.3,0,0.3,0s0.4,0.8,0.5,0.9l0,0c0,0,0,0,0,0.1c0,0,0.1,0.2,0.2,0.3s0.1,0.2,0.2,0.3
		c0,0,0.2,0.3,0.3,0.5c0.3,0.7,0.4,0.8,0.5,0.7l0,0c0,0.1,0.2,0.5,0.3,0.6l0,0c-0.1,0,0.2,0.6,0.3,0.6l0,0l0,0c0,0,0,0,0,0.1
		c0,0,0,0.2,0.1,0.4c0.3,0.8,0.4,1,0.7,1.7c0.1,0.3,0.2,0.6,0.2,0.6v0.1l0,0c0,0,0,0,0,0.1c0,0,0.1,0.3,0.2,0.6
		c0.2,0.7,0.6,2.1,0.7,2.8c0.1,0.3,0.1,0.6,0.1,0.6s0,0.1,0,0.2c0,0.1,0.1,0.5,0.1,1c0.4,3.2,0.3,6.5-0.3,9.7
		C76,53.3,76,53.6,76,53.7v0.1c-0.1,0-0.1,0.3-0.1,0.4l0,0h-0.1c0,0.3-0.8,2.7-1.2,3.8c-0.1,0.3-0.2,0.6-0.3,0.7c0,0,0,0.1-0.1,0.1
		c0,0-0.1,0.2-0.2,0.4s-0.3,0.6-0.5,1s-0.3,0.7-0.3,0.8l0,0c-0.1-0.1-0.3,0.4-0.2,0.5c0,0,0,0.1,0,0c-0.1,0-0.2,0.1-0.2,0.2l0,0
		c-0.1,0-0.2,0.3-0.2,0.4l0,0c-0.1,0-0.6,0.9-0.6,1c0,0,0,0.1-0.1,0.1c0,0-0.1,0.1,0,0.1v0.1c-0.1,0-0.4,0.4-0.4,0.5
		c0,0,0,0.1-0.1,0.1l-0.1,0.1c0,0-0.1,0.2-0.2,0.3c-0.1,0.1-0.2,0.2-0.2,0.2s0,0.1-0.1,0.1l-0.1,0.1c0,0,0,0.1-0.1,0.1
		c-0.1,0.1-0.5,0.5-0.4,0.6v0.1l0,0c0,0,0,0-0.1,0.1S70,65.8,70,65.8s-0.1,0.1-0.2,0.2s-0.2,0.2-0.2,0.2s-0.1,0.1-0.2,0.2
		s-0.2,0.2-0.2,0.2s-0.1,0.1-0.2,0.2s-0.2,0.2-0.2,0.3c0,0.1-0.1,0.2-0.3,0.3c-0.1,0-0.1,0.1-0.1,0.2s-0.1,0.1-0.1,0.1l0,0
		c0,0,0,0.1-0.1,0.1S68.1,67.9,68,68c0,0.1-0.1,0.1-0.1,0.1s-0.1,0-0.2,0.1s-0.2,0.2-0.2,0.2c0,0.1-0.1,0.2-0.2,0.2s-0.1,0-0.1,0.1
		s0,0.1,0,0c-0.1,0-0.3,0.2-0.3,0.2l0,0c-0.1,0-0.2,0.1-0.1,0.2c0,0,0,0.1,0,0c-0.1,0-0.1,0-0.1,0l0,0c-0.1,0-0.2,0.1-0.2,0.1
		s0,0-0.1,0c0,0-0.2,0.1-0.3,0.2c-0.1,0.1-0.2,0.2-0.2,0.2l-0.8,0.6c0,0,0,0-0.1,0c0,0-0.2,0.1-0.3,0.2c-0.3,0.2-0.3,0.3-0.3,0.3
		s0,0-0.1,0c0,0-0.1,0-0.2,0.1c0,0-0.1,0.1-0.2,0.2c-0.1,0-0.1,0.1-0.1,0.1s0,0-0.1,0c0,0-0.1,0-0.1,0.1c0,0,0,0.1,0,0
		c-0.1,0-0.3,0.1-0.3,0.2c0,0,0,0.1-0.1,0.1s-0.8,0.4-0.7,0.5l0,0c-0.1,0-0.8,0.4-0.8,0.5c0,0,0,0.1,0,0c0,0-0.1,0-0.3,0.1
		c-0.3,0.2-1.7,0.9-1.7,0.9s-0.1,0-0.1,0.1s0.3,0.4,0.3,0.4c-0.1,0-0.6,0.3-0.6,0.3l0,0c-0.1,0-0.5,0.1-0.5,0.2l0,0c0,0-0.1,0-0.2,0
		c-0.1,0-0.4,0.2-0.8,0.3c-0.3,0.1-0.7,0.2-0.7,0.3H57c0,0-0.3,0.1-0.7,0.2s-0.7,0.2-0.8,0.2s-0.2,0-0.2,0.1c-0.1,0-1.7,0.4-2,0.5
		c-0.1,0-0.3,0.1-0.6,0.1c-0.5,0.1-0.9,0.1-1.8,0.2c-1.2,0.1-4.1,0.2-5.3,0.1c-0.4,0-0.8-0.1-1-0.1s-0.3,0-0.4,0
		c0,0-0.4-0.1-0.7-0.1s-0.7-0.1-0.7-0.1c-0.1,0-0.2,0-0.4-0.1c-0.5-0.1-2-0.4-2.4-0.6c-0.1,0-0.2-0.1-0.3-0.1c0,0-0.2-0.1-0.5-0.1
		c-0.3-0.1-0.5-0.2-0.6-0.2s-0.4-0.1-0.8-0.3S37,74.5,37,74.5s-0.2-0.1-0.3-0.1c-0.3-0.1-0.3-0.2-0.3-0.1c0,0,0,0-0.1,0
		c-0.1-0.1-1.1-0.6-1.2-0.5l0,0c0,0-0.1-0.1-0.2-0.1c-0.2-0.1-1.4-0.7-1.6-0.9c-0.1,0-0.1-0.1-0.2,0l0,0v-0.1H33c0,0-0.1,0-0.1-0.1
		c0,0-0.2-0.1-0.3-0.2s-0.2-0.1-0.2-0.1l0,0l0,0c0-0.1-0.9-0.7-0.9-0.6c0,0-0.1,0-0.1-0.1c-0.1-0.1-0.2-0.1-0.3-0.2
		c-0.1,0-0.1-0.1-0.2-0.1c-0.1-0.1-0.4-0.3-0.5-0.3c0,0-0.1-0.1-0.2-0.1c-0.2-0.2-0.2-0.2-0.2,0c0,0.1,0,0.1,0,0.1s-0.1-0.1,0-0.2
		c0-0.1-0.6-0.6-0.7-0.6l0,0c0,0-0.3-0.3-0.4-0.3c0,0-0.1-0.1-0.2-0.2s-0.2-0.2-0.2-0.2s-0.3-0.3-1.4-1.3c-0.5-0.5-0.9-0.8-0.9-0.8
		l0,0c0,0-0.1-0.2-0.3-0.4c-0.2-0.2-0.3-0.3-0.3-0.3l-0.7-0.8l0,0c0-0.1-0.5-0.7-0.6-0.7s-0.1,0-0.2,0c0-0.1,0-0.1,0.1,0
		c0.2,0.1,0.2,0,0-0.2c-0.1-0.1-0.1-0.2-0.1-0.2s-0.3-0.4-0.3-0.5c0,0-0.1-0.1-0.1-0.2s-0.1-0.2-0.2-0.3s-0.1-0.1-0.1-0.1l-0.6-0.9
		l0,0l0,0c0,0-0.1-0.1-0.2-0.3c-0.1-0.1-0.2-0.3-0.2-0.3c-0.1,0-0.1,0,0,0s0.1,0,0.1-0.1c0,0-0.1-0.1-0.1,0c-0.1,0-0.1,0,0,0
		c0,0,0-0.2-0.3-0.7c-0.4-0.8-0.6-1.1-0.6-1.1s-0.1-0.3-0.2-0.5c-0.2-0.4-0.3-0.5-0.1-0.1c0,0.1,0.1,0.1,0.1,0.1s0,0.2,0.1,0.3
		c0,0.2,0.1,0.3,0.1,0.3c0,0.2,0.3,0.8,0.3,0.8s0,0,0,0.1c0,0,0,0.1,0,0.2c0,0.1,0.1,0.1,0.1,0.2c0,0.1,0.1,0.2,0.2,0.6
		c0,0.1,0.1,0.1,0.1,0.2c0,0.1,0.2,0.5,0.4,0.9c0.1,0.2,0.2,0.4,0.2,0.4c0.2,0.6,0.4,0.8,0.4,0.9s0.1,0.1,0.1,0.2s0.2,0.5,0.3,0.6
		c0.1,0.1,0.1,0.1,0.1,0.1c-0.1,0,0.5,1.1,0.6,1.2l0.1,0.1V67l0,0c0,0.1,0.1,0.3,0.2,0.3s0.1,0,0,0c0,0.1,0,0.1,0,0.2
		c0.1,0.1,0.1,0.1,0.1,0.1l0,0c0.1,0,0.1,0,0.1,0.1s0,0.1,0,0.1s0.1,0,0.1,0.1s0.3,0.6,0.4,0.5l0,0v0.1c0,0,0.1,0.1,0.1,0.2
		c0.1,0.2,0.9,1.4,1,1.4c0,0,0.1,0,0.1,0.1s0,0-0.1,0s0.1,0.2,0.2,0.3l0.1,0.1c0,0.1,0.1,0.3,0.2,0.2l0,0c0,0,0,0.1,0.1,0.1
		s0.1,0.1,0.1,0.1c0,0.1,0.7,0.9,0.8,1l0.1,0.1c0,0,0,0.1,0.1,0c0,0,0.1,0,0,0c0,0,0,0.1,0.1,0.1s0.1,0.1,0.1,0.1s0.1,0.2,0.3,0.3
		c0.2,0.2,0.3,0.3,0.3,0.3c0,0.1,0.3,0.3,0.4,0.3l0,0c0,0.1,0.1,0.2,0.1,0.2l0,0c0,0.1,0.2,0.3,0.3,0.3l0,0c-0.1,0,0.1,0.2,0.2,0.2
		c0,0,0.1,0,0.1,0.1s0,0.1,0,0c-0.1-0.1,0.1,0.1,0.2,0.2c0.1,0,0.1,0.1,0.1,0.1l0,0c0,0.1,0.2,0.3,0.2,0.2l0,0
		c0,0.1,0.2,0.3,0.3,0.3c0,0,0.1,0,0,0c0,0.1,0.5,0.6,0.6,0.6h0.1c0,0,0,0,0.1,0c0,0,0.1,0,0.1,0.1s0.1,0.1,0.1,0.1s0.1,0,0.1,0.1
		s0.7,0.6,0.7,0.6s0.1,0,0,0c0,0.1,0.1,0.2,0.1,0.1c0,0,0,0,0,0.1s0,0.1,0.1,0.2c0.1,0,0.1,0.1,0.2,0.2c0.3,0.3,0.5,0.4,0.6,0.4l0,0
		c0,0.1,0.5,0.5,0.6,0.5c0,0,0.1,0.1,0.2,0.1c0.1,0.1,0.1,0.1,0.2,0.1c0,0,0.1,0,0.1,0.1c0,0,0,0.1,0.1,0.1l0.1,0.1
		c0.2,0.1,0.2,0.2,0.3,0.2h0.1c0,0,0,0,0.1,0h0.1c0,0,0,0,0.1,0s0.1,0,0.1,0.1s0.2,0.1,0.2,0.1l0,0v0.1c0,0,0.1,0,0.1,0.1l0,0
		c0,0,0.1,0,0.2,0.1c0.1,0.1,0.2,0.1,0.3,0.2c0.1,0,0.1,0.1,0.1,0.1s0.1,0.1,0.2,0.1c0.1,0.1,0.2,0.1,0.2,0.1s0,0,0.1,0h0.1
		c0,0,0.8,0.6,0.9,0.6c0,0,0.1,0,0.1,0.1l0.1,0.1l0,0c0,0,0.1,0.1,0.3,0.2s0.3,0.1,0.3,0.2c0.1,0.1,0.8,0.4,0.8,0.4l0,0l0,0l0,0
		c0,0,0.6,0.3,0.7,0.4c0,0,0.1,0,0.2,0.1c0.1,0,0.2,0.1,0.2,0.1l0,0c0,0,0.3,0.2,0.5,0.2c0,0,0.1,0.1,0.2,0.1
		c0.1,0.1,0.2,0.1,0.3,0.1c0,0,0.1,0,0,0c0,0,0.9,0.4,1.1,0.5H43h0.1c0,0,0.1,0,0.2,0.1c0.2,0.1,1.4,0.5,1.5,0.5c0,0,0.1,0,0,0
		c0,0.1,0.7,0.3,0.8,0.2l0,0c-0.1,0.1,1,0.4,2.5,0.7c3.6,0.8,7.5,1,11.2,0.6c0.4,0,0.8-0.1,0.8-0.1h0.1c0.2,0,2.8-0.4,3.9-0.7
		c0.3-0.1,0.5-0.1,0.6-0.1c0.3-0.1,2.5-0.7,2.6-0.8h0.1c0.1,0,0.8-0.3,1.7-0.6c1-0.4,1.2-0.5,1.1-0.5l0,0c0.1,0,0.8-0.3,0.7-0.3
		c0,0,0,0,0.1,0s0.1,0,0.2-0.1c0,0,0.1-0.1,0.1,0c0,0,0.4-0.1,0.4-0.2c0,0,0,0,0.1,0s1.4-0.7,1.5-0.8l0.1-0.1l0.4-0.2
		c0,0,0.1,0,0.1-0.1C74,80.1,74,80,74,80l0,0c0.1,0,0.3-0.1,0.3-0.1s0,0,0.1,0h0.1c0,0,0,0,0.1,0s0.8-0.4,0.8-0.5c0,0,0-0.1,0.1,0
		c0.1,0,0.1,0,0.1-0.1c0,0,0-0.1,0.1-0.1l0,0v-0.1c0.1,0,0.4-0.3,0.4-0.3l0,0c0,0,0.1,0,0.1-0.1c0.1-0.1,0.3-0.2,0.7-0.5
		c0.1-0.1,0.2-0.1,0.2-0.1s0,0,0.1,0s0.4-0.3,0.4-0.3l0,0c0.1,0,0.1,0,0.3-0.2c0.1-0.1,0.1-0.1,0.1-0.1c0.1,0,0.3-0.2,0.2-0.2l0,0
		c0.1,0,0.2-0.1,0.4-0.3c0.6-0.5,0.7-0.6,0.7-0.7v-0.1c0,0,0,0,0,0.1c0,0,0.1,0,0.1-0.1c0.1-0.1,0.1-0.1,0.1-0.1s0.1,0,0.1-0.1
		c0.1-0.1,0.1-0.1,0.1-0.2c0,0,0-0.1,0,0c0.1,0,0.3-0.1,0.2-0.2c0,0,0,0,0.1-0.1s0.5-0.5,0.5-0.6l0,0c0,0,0.1,0,0.1-0.1
		s0.1-0.2,0.2-0.2s0.2-0.1,0.2-0.2s0.1-0.2,0.2-0.2s0.1-0.1,0.1-0.2c0,0,0,0,0.1,0s0.5-0.4,0.5-0.5c0,0,0.1-0.2,0.3-0.3
		c0.2-0.1,0.3-0.3,0.3-0.3s0-0.1,0.1-0.1c0,0,0.1-0.1,0-0.1l0,0c0.1,0,1.3-1.4,1.3-1.5c0,0,0.1-0.1,0.2-0.2s0.2-0.2,0.1-0.2l0,0
		c0,0,0.1-0.1,0.2-0.2s0.2-0.3,0.2-0.3v-0.1c-0.1,0-0.1,0,0,0s0.4-0.4,0.4-0.5c0,0,0-0.1,0.1-0.1c0,0,0,0,0-0.1c0,0,0-0.1,0,0
		c0.1,0,0.3-0.3,0.2-0.4l0,0l0.3-0.4l0,0c0.1,0,0.3-0.4,0.3-0.5c0,0,0-0.1,0,0H86v-0.1c0,0,0.2-0.2,0.2-0.3l0,0c0,0,0,0,0-0.1
		c0,0,0-0.1,0.1-0.1l0,0l0,0c0,0,0.2-0.2,0.5-0.8c0.3-0.5,0.6-1.2,0.6-1.2s0-0.1,0.1-0.1c0.1-0.1,0.1-0.2,0.1-0.2v-0.1
		c0,0,0.1-0.1,0.2-0.2s0.2-0.4,0.3-0.7c0.1-0.2,0.2-0.5,0.2-0.5s0.1-0.1,0.1-0.3c0.1-0.3,0.6-1.3,0.6-1.4V62l0,0v-0.1
		c0.9-2.3,1.7-5.7,2-7.8c0-0.1,0.1-0.5,0.1-0.8c0.2-1.3,0.2-2,0.2-4.2c0-1.3,0-2.4-0.1-2.8c0-0.3-0.1-0.7-0.1-0.9
		c0.3-1.1,0-3.4-0.1-3.4c0,0,0-0.1,0-0.2c0-0.1-0.1-0.5-0.2-1c-0.1-0.4-0.2-0.8-0.2-0.9c-0.1-0.6-0.3-1.2-0.4-1.2l0,0
		c0-0.1,0-0.2-0.3-1.1c-0.3-1-0.9-2.5-1.2-3.1c0-0.1-0.1-0.2-0.1-0.2l0,0l0,0l0,0c0,0,0,0,0-0.1c0-0.2-1.4-2.8-1.4-2.8l0,0
		c0-0.1-0.2-0.5-0.3-0.5c0,0,0,0,0-0.1s0-0.1-0.1-0.1l0,0v-0.1c0,0-0.1,0-0.1-0.1s-0.1-0.2-0.1-0.2c-0.1-0.1-0.1-0.1-0.1-0.1
		c0-0.1-0.4-0.7-0.5-0.8c-0.1,0-0.1-0.1-0.1-0.1v-0.1c0,0-0.1,0-0.1-0.1s-0.2-0.4-0.3-0.4c0,0,0,0,0-0.1v-0.1c0,0,0,0,0-0.1
		c0,0,0-0.1-0.1-0.1s-0.1-0.1-0.1-0.1c0-0.1-0.1-0.2-0.2-0.2s-0.1,0,0-0.1s-0.3-0.6-0.4-0.6c0,0,0,0,0-0.1v-0.1l0,0
		c0-0.1-0.7-0.9-0.7-0.9s0,0,0-0.1s-0.1-0.1-0.1-0.2c-0.1-0.1-0.1-0.1-0.1-0.1s0,0-0.1-0.1s-0.2-0.2-0.2-0.3
		c-0.1-0.1-0.1-0.1-0.2-0.1l0,0c0-0.1,0-0.2-0.2-0.3c-0.1-0.1-0.2-0.2-0.2-0.3c-0.3-0.4-0.7-0.8-0.8-0.8c-0.1,0-0.1,0,0,0
		s-0.5-0.8-0.7-0.7c-0.1,0-0.1,0,0,0c0.1-0.1-0.5-0.6-0.6-0.6l0,0c0-0.1-0.5-0.6-0.5-0.5c0,0-0.1,0-0.1-0.1s-0.1-0.1-0.1-0.1
		s-0.1-0.1-0.2-0.2s-0.2-0.2-0.2-0.2s-0.1,0-0.1-0.1c0,0-0.1-0.1-0.1,0c-0.1,0-0.1,0,0,0c0-0.1,0-0.1,0-0.1c-0.1-0.1-0.1-0.1-0.1,0
		l0,0c0-0.1-0.3-0.3-0.4-0.3c0,0-0.1,0-0.1-0.1s-0.7-0.6-0.8-0.6H78c0-0.1-0.4-0.4-0.5-0.4h-0.1c0,0-0.6-0.5-0.7-0.5l0,0l-0.1-0.1
		c-0.1,0-0.1-0.1-0.1-0.1l-0.1-0.1c-0.1,0-0.1,0-0.1,0s-0.2-0.2-0.2-0.1l0,0v-0.1c0,0-0.1,0-0.1,0.1s0,0.1,0,0.1V19
		c0-0.1-0.4-0.4-0.5-0.4c0,0-0.1,0,0,0l-0.4-0.3l0,0c0,0,0,0-0.1,0s-0.1,0-0.1,0c0-0.1-0.3-0.2-0.3-0.2l0,0V18c0,0-0.1,0-0.1,0.1
		s0,0.1,0,0s-0.5-0.4-0.7-0.5c0,0-0.1,0-0.2-0.1c-1-0.5-1.6-0.8-1.6-0.7l0,0c-0.1-0.1-0.7-0.4-0.8-0.4l0,0c0,0-0.2-0.2-0.4-0.2
		c0,0-0.2-0.1-0.4-0.2c-0.2-0.1-0.4-0.2-0.4-0.2s-0.2-0.1-0.3-0.1c-0.2-0.1-0.3-0.1-0.3-0.1h-0.1h-0.1l0,0c0-0.1-0.8-0.4-0.9-0.4
		c0,0-0.1,0,0,0c0,0-0.7-0.3-0.9-0.4c-0.1,0-0.2,0-0.2-0.1c-0.1,0-0.1-0.1-0.1-0.1s0,0-0.1,0C62.7,13.2,58.4,12.6,54.1,12.8
		 M27.8,26c-0.1,0.1-0.1,0.2-0.1,0.2C27.7,26.2,27.7,26.1,27.8,26c0.1,0,0.2-0.1,0.2-0.1C27.9,25.9,27.9,25.9,27.8,26 M68.9,67.6
		C68.9,67.7,68.8,67.7,68.9,67.6C68.7,67.7,68.9,67.6,68.9,67.6L68.9,67.6 M68.2,68.3C68.2,68.3,68.2,68.4,68.2,68.3
		C68,68.5,68,68.5,68,68.4C68.1,68.4,68.1,68.3,68.2,68.3C68.2,68.4,68.2,68.3,68.2,68.3S68.2,68.2,68.2,68.3
		C68.2,68.2,68.2,68.3,68.2,68.3"/>
</g>
<text transform="matrix(1 0 0 1 38 66.5)" class="st3 st4">+</text>
<text transform="matrix(1 0 0 1 44 67)" class="st2 st4">+</text>
</svg>
